<svg width="60" height="67" viewBox="0 0 60 67" fill="none" xmlns="http://www.w3.org/2000/svg">
<g id="logo" filter="url(#filter0_d_44_7)">
<g id="Rectangle 10">
<rect x="4" y="7" width="52" height="52" rx="4" fill="white"/>
<rect x="4.5" y="7.5" width="51" height="51" rx="3.5" stroke="#9B64E1" stroke-opacity="0.42"/>
</g>
<path id="&#224;&#166;&#149;" d="M37.412 10.608V13.164H25.712V15.396V15.972V33H22.94C22.244 31.584 21.272 30.252 20.024 29.004C18.776 27.756 17.348 26.712 15.74 25.872C14.156 25.008 12.488 24.468 10.736 24.252L9.332 20.796C11.66 19.452 13.988 18.252 16.316 17.196C18.644 16.14 21.116 15.204 23.732 14.388L22.94 15.9V13.164H7.64V10.608H37.412ZM22.94 16.188L23.696 17.232C22.472 17.568 21.2 18.012 19.88 18.564C18.584 19.116 17.312 19.692 16.064 20.292C14.84 20.892 13.712 21.48 12.68 22.056C14.024 22.32 15.404 22.824 16.82 23.568C18.26 24.312 19.568 25.224 20.744 26.304C21.944 27.36 22.832 28.512 23.408 29.76L23.12 29.832C23.072 29.28 23.024 28.728 22.976 28.176C22.952 27.624 22.94 26.964 22.94 26.196V16.188ZM35.396 22.632C35.396 23.424 35.24 24.18 34.928 24.9C34.616 25.596 34.1 26.172 33.38 26.628C32.66 27.084 31.7 27.312 30.5 27.312C30.116 27.312 29.744 27.3 29.384 27.276C29.048 27.252 28.712 27.204 28.376 27.132L28.592 24.54C28.736 24.564 28.904 24.588 29.096 24.612C29.312 24.612 29.552 24.612 29.816 24.612C30.968 24.612 31.712 24.396 32.048 23.964C32.408 23.508 32.588 22.968 32.588 22.344C32.588 21.072 31.964 19.992 30.716 19.104C29.492 18.192 27.668 17.568 25.244 17.232L25.352 14.532C27.2 14.724 28.88 15.192 30.392 15.936C31.904 16.656 33.116 17.592 34.028 18.744C34.94 19.872 35.396 21.168 35.396 22.632Z" fill="black" fill-opacity="0.29"/>
<path id="&#224;&#166;&#133;" d="M52.508 32.608V35.164H48.728V55H45.956C45.26 53.584 44.396 52.348 43.364 51.292C42.332 50.212 41.228 49.288 40.052 48.52L40.952 46.144C41.864 46.672 42.812 47.392 43.796 48.304C44.78 49.216 45.536 50.14 46.064 51.076C46.04 50.716 46.016 50.38 45.992 50.068C45.992 49.756 45.98 49.432 45.956 49.096C45.956 48.76 45.956 48.4 45.956 48.016V35.164H19.64V32.608H52.508ZM33.536 51.724C31.904 51.724 30.344 51.34 28.856 50.572C27.368 49.804 25.964 48.508 24.644 46.684C23.348 44.836 22.148 42.304 21.044 39.088L23.672 38.224C24.536 40.72 25.436 42.772 26.372 44.38C27.332 45.964 28.4 47.128 29.576 47.872C30.752 48.616 32.096 48.988 33.608 48.988C34.928 48.988 35.984 48.784 36.776 48.376C37.592 47.944 38.18 47.368 38.54 46.648C38.9 45.904 39.08 45.088 39.08 44.2C39.08 42.808 38.696 41.68 37.928 40.816C37.184 39.952 36.248 39.52 35.12 39.52C34.328 39.52 33.728 39.7 33.32 40.06C32.912 40.396 32.708 40.912 32.708 41.608C32.708 41.776 32.732 42.004 32.78 42.292C32.828 42.58 32.9 42.844 32.996 43.084L30.26 43.624C30.092 43.12 29.96 42.664 29.864 42.256C29.792 41.824 29.756 41.416 29.756 41.032C29.756 40.144 29.996 39.4 30.476 38.8C30.98 38.2 31.616 37.756 32.384 37.468C33.176 37.156 34.004 37 34.868 37C36.284 37 37.508 37.324 38.54 37.972C39.572 38.596 40.376 39.46 40.952 40.564C41.528 41.668 41.816 42.952 41.816 44.416C41.816 45.712 41.516 46.924 40.916 48.052C40.316 49.156 39.404 50.044 38.18 50.716C36.956 51.388 35.408 51.724 33.536 51.724ZM32.384 38.26C32.264 37.492 31.904 36.82 31.304 36.244C30.728 35.644 29.876 35.224 28.748 34.984L29.612 33.364L31.232 33.796C32.6 34.324 33.584 34.924 34.184 35.596C34.784 36.268 35.132 37.12 35.228 38.152L32.384 38.26Z" fill="#6100C1"/>
</g>
<defs>
<filter id="filter0_d_44_7" x="0" y="7" width="60" height="60" filterUnits="userSpaceOnUse" color-interpolation-filters="sRGB">
<feFlood flood-opacity="0" result="BackgroundImageFix"/>
<feColorMatrix in="SourceAlpha" type="matrix" values="0 0 0 0 0 0 0 0 0 0 0 0 0 0 0 0 0 0 127 0" result="hardAlpha"/>
<feOffset dy="4"/>
<feGaussianBlur stdDeviation="2"/>
<feComposite in2="hardAlpha" operator="out"/>
<feColorMatrix type="matrix" values="0 0 0 0 0 0 0 0 0 0 0 0 0 0 0 0 0 0 0.25 0"/>
<feBlend mode="normal" in2="BackgroundImageFix" result="effect1_dropShadow_44_7"/>
<feBlend mode="normal" in="SourceGraphic" in2="effect1_dropShadow_44_7" result="shape"/>
</filter>
</defs>
</svg>
